# xmcd
#
# Track frame offsets:
#	150
#	23162
#	48455
#	72132
#	90312
#	113005
#	137592
#	158342
#
# Disc length: 2397 seconds
#
# Revision: 1
# Processed by: cddbd v1.5.1PL0 Copyright (c) Steve Scherf et al.
# Submitted via: audiograbber 1.83.01
#
DISCID=55095b08
DTITLE=Roberto Orellana - Tierra Del Fuego
DYEAR=1999
DGENRE=
TTITLE0=La Historia De Cristo
TTITLE1=Te Necesito
TTITLE2=Eterno Amor
TTITLE3=Soy Feliz
TTITLE4=Empezar Otra Vez
TTITLE5=Camino Angosto
TTITLE6=Que Reine La Paz
TTITLE7=No Temere
EXTD=
EXTT0=
EXTT1=
EXTT2=
EXTT3=
EXTT4=
EXTT5=
EXTT6=
EXTT7=
PLAYORDER=
